# xmcd
#
# Track frame offsets:
#	150
#	18772
#	35123
#	53171
#	68809
#	86936
#	102868
#	119635
#	134792
#	153562
#	172184
#	188535
#	206583
#	222221
#	240348
#	256280
#	273047
#	288204
#
# Disc length: 4092 seconds
#
# Revision: 1
# Processed by: cddbd v1.5.2PL0 Copyright (c) Steve Scherf et al.
# Submitted via: audiograbber 1.83.01
#
DISCID=090ffa12
DTITLE=Phm21103-01 - Phm21103-01
DYEAR=2011
DGENRE=Country
TTITLE0=Toby Keith - Bullets In The Gun
TTITLE1=Darius Rucker - This
TTITLE2=Little Big Town - Kiss Goodbye
TTITLE3=Lee Brice - Beautiful Every Time
TTITLE4=Steel Magnolia - Just By Being You (Halo And Wings)
TTITLE5=Josh Turner - I Wouldn't Be A Man
TTITLE6=Christian Kane - House Rules, The
TTITLE7=Loretta Lynn, Sheryl Crow, Miranda Lambert - Coal Miners Daughter
TTITLE8=Margaret Durante - Mississippi's Crying
TTITLE9=Toby Keith - Bullets In The Gun (vocals)
TTITLE10=Darius Rucker - This (vocals)
TTITLE11=Little Big Town - Kiss Goodbye (vocals)
TTITLE12=Lee Brice - Beautiful Every Time (vocals)
TTITLE13=Steel Magnolia - Just By Being You (Halo And Wings) (vocals)
TTITLE14=Josh Turner - I Wouldn't Be A Man (vocals)
TTITLE15=Christian Kane - House Rules, The (vocals)
TTITLE16=Loretta Lynn, Sheryl Crow, Miranda Lambert - Coal Miners Daughter (voc
TTITLE16=als)
TTITLE17=Margaret Durante - Mississippi's Crying (vocals)
EXTD=
EXTT0=
EXTT1=
EXTT2=
EXTT3=
EXTT4=
EXTT5=
EXTT6=
EXTT7=
EXTT8=
EXTT9=
EXTT10=
EXTT11=
EXTT12=
EXTT13=
EXTT14=
EXTT15=
EXTT16=
EXTT17=
PLAYORDER=
